<?xml version="1.0" standalone="no"?><svg viewBox="0 0 76 81" style="background-color:#ffffff00" version="1.1" xmlns="http://www.w3.org/2000/svg" xmlns:xlink="http://www.w3.org/1999/xlink" xml:space="preserve" x="0px" y="0px" width="76px" height="81px">	<g id="Layer%201">		<path d="M 22.8 2.1 C 23.8 4 24.4 6.3 25.1 8.3 C 30.4 24.7 35.1 41.3 40.9 58.1 C 50 55.1 59 52.1 68 49.4 C 68.5 49.2 69.3 49.3 69.5 49.3 C 70.6 49.3 71.6 49 72.6 50.6 C 74.5 53.5 76 59.2 76 62.7 C 76 63.6 76.1 64.1 75.6 65.1 C 75.4 65.4 74.8 65.7 74.6 65.8 C 73.7 66.3 72.8 66.8 71.9 67.2 C 70.5 67.8 68.9 68.5 67.4 69.1 C 65 70 62.5 70.8 60 71.6 C 56.8 72.6 53.5 73.6 50.3 74.7 C 45.6 76.1 33.4 81 27.3 81 C 26.4 81 25.5 81.1 24.8 80.5 C 21.7 77.7 20.8 72.9 19.9 70.2 C 18.9 66.9 17.9 63.1 16.7 59.9 C 15.8 57.1 14.8 54.2 13.9 51.4 C 13.2 49 12.3 46.4 11.5 44.1 C 10.8 42.1 10.1 40 9.5 38 C 6.4 28.7 3.2 19.4 0.2 10.1 C 0 9.6 0 9.1 0 8.8 C 0 5.5 5.3 3.8 7 3.1 C 9 2.2 11.2 1.2 13.4 0.6 C 14.5 0.2 16 0 17.3 0 C 18.9 0 21.9 0.3 22.8 2.1 Z" fill="#ffffff"/>	</g></svg>