<svg xmlns="http://www.w3.org/2000/svg" xmlns:xlink="http://www.w3.org/1999/xlink" x="0px" y="0px" width="64px" height="384px" viewBox="0 0 64 384">
  <g id="board-icon" viewBox="0 0 32 32" >
    <line data-color="color-2" fill="none"  stroke-width="1" stroke-linecap="square" stroke-miterlimit="10" x1="16" y1="24" x2="16" y2="30" stroke-linejoin="miter"/>
    <line data-cap="butt" data-color="color-2" fill="none"  stroke-width="1" stroke-miterlimit="10" x1="13" y1="24" x2="7" y2="31" stroke-linejoin="miter" stroke-linecap="butt"/>
    <line data-cap="butt" data-color="color-2" fill="none"  stroke-width="1" stroke-miterlimit="10" x1="19" y1="24" x2="25" y2="31" stroke-linejoin="miter" stroke-linecap="butt"/>
    <polyline fill="none"  stroke-width="1" stroke-linecap="square" stroke-miterlimit="10" points="28,21 28,4 4,4 &#10;&#9;4,21 " stroke-linejoin="miter"/>
    <polyline fill="none"  stroke-width="1" stroke-linecap="square" stroke-miterlimit="10" points="14,4 14,1 18,1 &#10;&#9;18,4 " stroke-linejoin="miter"/>
    <rect x="1" y="21" fill="none"  stroke-width="1" stroke-linecap="square" stroke-miterlimit="10" width="30" height="3" stroke-linejoin="miter"/>
  </g>
  <g id="food-icon" viewBox="0 0 64 64">
    <line data-color="color-2" fill="none"  stroke-width="1" stroke-linecap="square" stroke-miterlimit="10" x1="32" y1="2" x2="32" y2="12" stroke-linejoin="miter"/>
    <line data-color="color-2" fill="none"  stroke-width="1" stroke-linecap="square" stroke-miterlimit="10" x1="20" y1="6" x2="20" y2="16" stroke-linejoin="miter"/>
    <line data-color="color-2" fill="none"  stroke-width="1" stroke-linecap="square" stroke-miterlimit="10" x1="44" y1="6" x2="44" y2="16" stroke-linejoin="miter"/>
    <path data-cap="butt" fill="none"  stroke-width="1" stroke-miterlimit="10" d="M6.1,54c1-13.4,12.2-24,25.9-24&#10;&#9;s24.9,10.6,25.9,24" stroke-linejoin="miter" stroke-linecap="butt"/>
    <circle fill="none"  stroke-width="1" stroke-linecap="square" stroke-miterlimit="10" cx="32" cy="26" r="4" stroke-linejoin="miter"/>
    <path fill="none"  stroke-width="1" stroke-linecap="square" stroke-miterlimit="10" d="M54,62H10c-4.4,0-8-3.6-8-8&#10;&#9;v0h60v0C62,58.4,58.4,62,54,62z" stroke-linejoin="miter"/>
    <path data-cap="butt" fill="none"  stroke-width="1" stroke-miterlimit="10" d="M26,39c-4.3,1.5-7.9,4.7-10,8.7" stroke-linejoin="miter" stroke-linecap="butt"/>
  </g>
  <g transform="translate(0.5, 128.5)">
    <path data-cap="butt" data-color="color-2" fill="none"  stroke-width="1" stroke-miterlimit="10" d="M38,14c0-6.6,5.4-12,12-12&#10;&#9;s12,5.4,12,12s-5.4,12-12,12c-3,0-5.7-1.1-7.7-2.8" stroke-linejoin="miter" stroke-linecap="butt"/>
    <line data-cap="butt" data-color="color-2" fill="none"  stroke-width="1" stroke-miterlimit="10" x1="16.2" y1="26" x2="39.8" y2="26" stroke-linejoin="miter" stroke-linecap="butt"/>
    <polygon fill="none"  stroke-width="1" stroke-linecap="square" stroke-miterlimit="10" points="50,14 28,40 6,14 &#10;&#9;" stroke-linejoin="miter"/>
    <line fill="none"  stroke-width="1" stroke-linecap="square" stroke-miterlimit="10" x1="28" y1="40" x2="28" y2="62" stroke-linejoin="miter"/>
    <line fill="none"  stroke-width="1" stroke-linecap="square" stroke-miterlimit="10" x1="14" y1="62" x2="42" y2="62" stroke-linejoin="miter"/>
  </g>
  <g id="mic-icon" viewbox="0 0 32 32" >
    <line data-cap="butt" fill="none"  stroke-width="1" stroke-miterlimit="10" x1="10" y1="8" x2="14" y2="8" stroke-linejoin="miter" stroke-linecap="butt"/>
    <line data-cap="butt" fill="none"  stroke-width="1" stroke-miterlimit="10" x1="10" y1="12" x2="14" y2="12" stroke-linejoin="miter" stroke-linecap="butt"/>
    <line data-cap="butt" fill="none"  stroke-width="1" stroke-miterlimit="10" x1="10" y1="16" x2="14" y2="16" stroke-linejoin="miter" stroke-linecap="butt"/>
    <line data-cap="butt" fill="none"  stroke-width="1" stroke-miterlimit="10" x1="18" y1="8" x2="22" y2="8" stroke-linejoin="miter" stroke-linecap="butt"/>
    <line data-cap="butt" fill="none"  stroke-width="1" stroke-miterlimit="10" x1="18" y1="12" x2="22" y2="12" stroke-linejoin="miter" stroke-linecap="butt"/>
    <line data-cap="butt" fill="none"  stroke-width="1" stroke-miterlimit="10" x1="18" y1="16" x2="22" y2="16" stroke-linejoin="miter" stroke-linecap="butt"/>
    <path fill="none"  stroke-width="1" stroke-linecap="square" stroke-miterlimit="10" d="M16,22L16,22&#10;&#9;c-3.3,0-6-2.7-6-6V7c0-3.3,2.7-6,6-6h0c3.3,0,6,2.7,6,6v9C22,19.3,19.3,22,16,22z" stroke-linejoin="miter"/>
    <line data-color="color-2" fill="none"  stroke-width="1" stroke-linecap="square" stroke-miterlimit="10" x1="10" y1="31" x2="22" y2="31" stroke-linejoin="miter"/>
    <line data-color="color-2" fill="none"  stroke-width="1" stroke-linecap="square" stroke-miterlimit="10" x1="16" y1="26" x2="16" y2="31" stroke-linejoin="miter"/>
    <path data-color="color-2" fill="none"  stroke-width="1" stroke-linecap="square" stroke-miterlimit="10" d="M26,12v4&#10;&#9;c0,5.5-4.5,10-10,10h0c-5.5,0-10-4.5-10-10v-4" stroke-linejoin="miter"/>
  </g>
  <g transform="translate(0.5, 256.5)">
    <line data-cap="butt" data-color="color-2" fill="none"  stroke-width="1" stroke-miterlimit="10" x1="4" y1="22" x2="60" y2="22" stroke-linejoin="miter" stroke-linecap="butt"/>
    <polyline data-cap="butt" data-color="color-2" fill="none"  stroke-width="1" stroke-miterlimit="10" points="32,58 42,22 32,6 " stroke-linejoin="miter" stroke-linecap="butt"/>
    <polyline data-cap="butt" data-color="color-2" fill="none"  stroke-width="1" stroke-miterlimit="10" points="32,6 22,22 32,58 " stroke-linejoin="miter" stroke-linecap="butt"/>
    <line data-cap="butt" data-color="color-2" fill="none"  stroke-width="1" stroke-miterlimit="10" x1="14" y1="6" x2="22" y2="22" stroke-linejoin="miter" stroke-linecap="butt"/>
    <line data-cap="butt" data-color="color-2" fill="none"  stroke-width="1" stroke-miterlimit="10" x1="50" y1="6" x2="42" y2="22" stroke-linejoin="miter" stroke-linecap="butt"/>
    <polygon fill="none"  stroke-width="1" stroke-linecap="square" stroke-miterlimit="10" points="60,22 32,58 4,22 &#10;&#9;14,6 50,6 " stroke-linejoin="miter"/>
  </g>
  <g transform="translate(0.5, 320.5)">
    <polyline data-cap="butt" data-color="color-2" fill="none"  stroke-width="1" stroke-miterlimit="10" points="44,24 62,24 62,34 &#10;&#9;56,40 56,54 46,54 46,40 44,38 " stroke-linejoin="miter" stroke-linecap="butt"/>
    <circle data-color="color-2" fill="none"  stroke-width="1" stroke-linecap="square" stroke-miterlimit="10" cx="52" cy="12" r="6" stroke-linejoin="miter"/>
    <polyline data-cap="butt" data-color="color-2" fill="none"  stroke-width="1" stroke-miterlimit="10" points="20,24 2,24 2,34 8,40 &#10;&#9;8,54 18,54 18,40 20,38 " stroke-linejoin="miter" stroke-linecap="butt"/>
    <circle data-color="color-2" fill="none"  stroke-width="1" stroke-linecap="square" stroke-miterlimit="10" cx="12" cy="12" r="6" stroke-linejoin="miter"/>
    <polygon fill="none"  stroke-width="1" stroke-linecap="square" stroke-miterlimit="10" points="38,62 26,62 26,46 &#10;&#9;20,40 20,24 44,24 44,40 38,46 " stroke-linejoin="miter"/>
    <circle fill="none"  stroke-width="1" stroke-linecap="square" stroke-miterlimit="10" cx="32" cy="10" r="8" stroke-linejoin="miter"/>
  </g>
</svg>
