<?xml version="1.0" encoding="UTF-8" standalone="no"?>
<svg width="132px" height="24px" viewBox="0 0 132 24" version="1.1" xmlns="http://www.w3.org/2000/svg" xmlns:xlink="http://www.w3.org/1999/xlink" xmlns:sketch="http://www.bohemiancoding.com/sketch/ns">
    <!-- Generator: Sketch 3.5.2 (25235) - http://www.bohemiancoding.com/sketch -->
    <title>Page 1</title>
    <desc>Created with Sketch.</desc>
    <defs>
        <path id="path-1" d="M0,0.0468571429 L131.122256,0.0468571429 L131.122256,24 L0,24 L0,0.0468571429 Z"></path>
        <path id="path-3" d="M0,0.0468571429 L131.122256,0.0468571429 L131.122256,24 L0,24 L0,0.0468571429 Z"></path>
        <path id="path-5" d="M0,0.0468571429 L131.122256,0.0468571429 L131.122256,24 L0,24 L0,0.0468571429 Z"></path>
    </defs>
    <g id="Page-1" stroke="none" stroke-width="1" fill="none" fill-rule="evenodd" sketch:type="MSPage">
        <g sketch:type="MSLayerGroup">
            <g id="Group-3">
                <mask id="mask-2" sketch:name="Clip 2" fill="white">
                    <use xlink:href="#path-1"></use>
                </mask>
                <g id="Clip-2"></g>
                <path d="M8.20532308,11.2410286 C9.73855385,11.2410286 10.8735282,11.0673143 11.6113744,10.7141714 C12.3435795,10.3610286 12.9042974,9.86617143 13.2924,9.22731429 C13.6805026,8.5896 13.8711692,7.77474286 13.8711692,6.77702857 C13.8711692,5.79302857 13.6816308,4.98617143 13.3014256,4.35531429 C12.9223487,3.72331429 12.3706564,3.24102857 11.6486051,2.90845714 C10.9265538,2.57817143 9.78029744,2.41588571 8.20532308,2.43074286 L8.20532308,11.2410286 Z M8.20532308,12.5176 L8.20532308,19.6936 L8.18501538,20.5290286 C8.18501538,21.1141714 8.33281026,21.5587429 8.6284,21.8661714 C8.92511795,22.1713143 9.36511795,22.3233143 9.95629744,22.3233143 C10.822759,22.3233143 11.6226564,22.1267429 12.3582462,21.7347429 C13.0915795,21.3438857 13.6522974,20.7747429 14.0392718,20.0307429 C14.4273744,19.2878857 14.6214256,18.4627429 14.6214256,17.5587429 C14.6214256,16.5084571 14.3856308,15.5690286 13.9117846,14.7393143 C13.4401949,13.9084571 12.7835795,13.3278857 11.9430667,12.9953143 C11.1025538,12.6650286 9.85927179,12.5050286 8.20532308,12.5176 L8.20532308,12.5176 Z M14.1284,11.6810286 C16.2144513,12.1724571 17.6822462,12.7701714 18.5351692,13.4753143 C19.754759,14.4844571 20.3651179,15.7873143 20.3651179,17.3816 C20.3651179,19.0558857 19.6960923,20.4444571 18.358041,21.5484571 C16.718759,22.8776 14.3393744,23.5404571 11.2153744,23.5404571 L-0.000112820513,23.5404571 L-0.000112820513,22.9221714 C1.00963077,22.9221714 1.6989641,22.8261714 2.06563077,22.6341714 C2.43229744,22.4421714 2.6884,22.1918857 2.83393846,21.8856 C2.97722051,21.5804571 3.04942564,20.8238857 3.04942564,19.6136 L3.04942564,5.10274286 C3.04942564,3.89245714 2.97722051,3.13245714 2.83393846,2.81931429 C2.6884,2.50845714 2.43342564,2.26045714 2.06563077,2.07417143 C1.6978359,1.88674286 1.00850256,1.79417143 -0.000112820513,1.79417143 L-0.000112820513,1.17588571 L10.5666564,1.17588571 C13.0972205,1.17588571 14.8921949,1.4056 15.9481949,1.86617143 C17.0053231,2.32217143 17.8334256,3.00445714 18.4358872,3.90845714 C19.0394769,4.81245714 19.3418359,5.77474286 19.3418359,6.7976 C19.3418359,7.87302857 18.9582462,8.83417143 18.1910667,9.67874286 C17.4238872,10.5221714 16.0689128,11.1896 14.1284,11.6810286 L14.1284,11.6810286 Z" id="Fill-1" fill="#1F3F5D" sketch:type="MSShapeGroup" mask="url(#mask-2)"></path>
            </g>
            <path d="M34.9286667,8.11165714 L34.9286667,20.1916571 C34.9286667,21.3745143 35.0381026,22.1093714 35.2524615,22.3950857 C35.4690769,22.6808 35.9113333,22.8636571 36.5826154,22.9425143 L36.5826154,23.5402286 L30.3842564,23.5402286 L30.3842564,21.4865143 C29.6486667,22.3642286 28.9175897,23.0019429 28.1898974,23.4008 C27.4622051,23.7996571 26.6521538,23.9973714 25.7597436,23.9973714 C24.8932821,23.9973714 24.1272308,23.7322286 23.4570769,23.2008 C22.7891795,22.6693714 22.3424103,22.0442286 22.1190256,21.3265143 C21.8967692,20.6099429 21.7850769,19.3596571 21.7850769,17.5802286 L21.7850769,11.4613714 C21.7850769,10.3036571 21.6745128,9.58251429 21.4601538,9.29908571 C21.2446667,9.01108571 20.8012821,8.82365714 20.1311282,8.72994286 L20.1311282,8.11165714 L26.328359,8.11165714 L26.328359,18.6579429 C26.328359,19.7608 26.3825128,20.4705143 26.4885641,20.7893714 C26.592359,21.1070857 26.7570769,21.3505143 26.9804615,21.5173714 C27.2027179,21.6830857 27.4588205,21.7676571 27.747641,21.7676571 C28.1413846,21.7676571 28.495641,21.6602286 28.8092821,21.4488 C29.243641,21.1562286 29.7682564,20.5779429 30.3853846,19.7139429 L30.3853846,11.4613714 C30.3853846,10.3036571 30.2770769,9.58251429 30.0604615,9.29908571 C29.8427179,9.01108571 29.4015897,8.82365714 28.7325641,8.72994286 L28.7325641,8.11165714 L34.9286667,8.11165714 Z" id="Fill-4" fill="#1F3F5D" sketch:type="MSShapeGroup"></path>
            <path d="M45.9682667,7.69531429 L46.2266256,12.9570286 L45.6557538,12.9570286 C45.0002667,11.3878857 44.3154462,10.3181714 43.6103179,9.74674286 C42.8995487,9.17531429 42.1921641,8.8896 41.4825231,8.8896 C41.0368821,8.8896 40.6578051,9.04274286 40.3430359,9.34788571 C40.0271385,9.65417143 39.8703179,10.0050286 39.8703179,10.4038857 C39.8703179,10.6964571 39.975241,10.9821714 40.183959,11.2610286 C40.5393436,11.7010286 41.5129846,12.4678857 43.1060103,13.5650286 C44.6990359,14.6610286 45.7505231,15.5890286 46.2548308,16.3536 C46.7591385,17.1193143 47.0129846,17.9718857 47.0129846,18.9147429 C47.0129846,19.7787429 46.8008821,20.6233143 46.3823179,21.4461714 C45.9614974,22.2713143 45.3669333,22.9021714 44.5907282,23.3387429 C43.8179077,23.7787429 42.9649846,23.9981714 42.0342154,23.9981714 C41.2986256,23.9981714 40.327241,23.7661714 39.1223179,23.3010286 C38.7940103,23.1821714 38.5706256,23.1216 38.4521641,23.1216 C38.0979077,23.1216 37.7955487,23.3993143 37.5462154,23.9570286 L37.0137026,23.9570286 L36.7576,18.4164571 L37.3081641,18.4164571 C37.7932923,19.8656 38.4634462,20.9513143 39.3163692,21.6758857 C40.1681641,22.3993143 40.9748308,22.7616 41.7374974,22.7616 C42.2621128,22.7616 42.6874462,22.5993143 43.0157538,22.2736 C43.3440615,21.9490286 43.5076513,21.5593143 43.5076513,21.1067429 C43.5076513,20.5764571 43.3463179,20.1170286 43.0259077,19.7318857 C42.703241,19.3456 41.9732923,18.7616 40.8338051,17.9776 C39.1787282,16.8084571 38.1103179,15.9170286 37.6240615,15.3067429 C36.9031385,14.4038857 36.543241,13.4061714 36.543241,12.3170286 C36.543241,11.1353143 36.9448821,10.0598857 37.7526769,9.09874286 C38.5593436,8.13531429 39.7304205,7.65302857 41.2636513,7.65302857 C42.0894974,7.65302857 42.8893949,7.85988571 43.6656,8.27131429 C43.9544205,8.43131429 44.1902154,8.51017143 44.3729846,8.51017143 C44.5704205,8.51017143 44.727241,8.47131429 44.8468308,8.39017143 C44.9630359,8.31131429 45.1525744,8.07931429 45.4165744,7.69417143 L45.9682667,7.69417143 L45.9682667,7.69531429 Z" id="Fill-6" fill="#1F3F5D" sketch:type="MSShapeGroup"></path>
            <path d="M50.5571282,0.657371429 C51.265641,0.657371429 51.8658462,0.906514286 52.3588718,1.40365714 C52.8507692,1.90422857 53.0955897,2.50422857 53.0955897,3.20708571 C53.0955897,3.91337143 52.8462564,4.51108571 52.3487179,5.00251429 C51.8500513,5.4928 51.2521026,5.73965714 50.5571282,5.73965714 C49.8621538,5.73965714 49.2721026,5.4928 48.7869744,5.00251429 C48.3007179,4.50994286 48.0581538,3.91337143 48.0581538,3.20708571 C48.0581538,2.50422857 48.3007179,1.90194286 48.7869744,1.40365714 C49.2721026,0.906514286 49.8621538,0.657371429 50.5571282,0.657371429 L50.5571282,0.657371429 Z M52.838359,8.11108571 L52.838359,20.3328 C52.838359,21.4219429 52.9647179,22.1179429 53.2129231,22.4242286 C53.4633846,22.7293714 53.9541538,22.9042286 54.6897436,22.9419429 L54.6897436,23.5396571 L46.4651282,23.5396571 L46.4651282,22.9419429 C47.1341538,22.9293714 47.6316923,22.7293714 47.96,22.3465143 C48.1698462,22.0916571 48.273641,21.4219429 48.273641,20.3328 L48.273641,11.3419429 C48.273641,10.2528 48.1495385,9.55451429 47.9013333,9.24822857 C47.652,8.94308571 47.1713846,8.77051429 46.4651282,8.72937143 L46.4651282,8.11108571 L52.838359,8.11108571 Z" id="Fill-8" fill="#1F3F5D" sketch:type="MSShapeGroup"></path>
            <path d="M59.9672615,8.11165714 L59.9672615,10.1048 C60.7524923,9.25451429 61.5027487,8.63394286 62.2180308,8.2408 C62.9333128,7.84994286 63.7038769,7.65451429 64.5308513,7.65451429 C65.5157744,7.65451429 66.3314667,7.93337143 66.9813128,8.49108571 C67.631159,9.0488 68.0677744,9.74022857 68.2900308,10.5630857 C68.4581333,11.1870857 68.5461333,12.3905143 68.5461333,14.1710857 L68.5461333,20.1699429 C68.5461333,21.3665143 68.6510564,22.1070857 68.8609026,22.3928 C69.0684923,22.6785143 69.5175179,22.8613714 70.1978256,22.9402286 L70.1978256,23.5379429 L62.4854154,23.5379429 L62.4854154,22.9402286 C63.0630564,22.8613714 63.4748513,22.6225143 63.7241846,22.2225143 C63.9080821,21.9436571 63.9994667,21.2590857 63.9994667,20.1688 L63.9994667,13.3128 C63.9994667,12.0510857 63.9509538,11.2522286 63.8528,10.9196571 C63.7546462,10.5870857 63.5876718,10.3322286 63.3518769,10.1516571 C63.1160821,9.97337143 62.8588513,9.88422857 62.582441,9.88422857 C61.6392615,9.88422857 60.767159,10.5619429 59.9672615,11.9173714 L59.9672615,20.1688 C59.9672615,21.3253714 60.0710564,22.0556571 60.2809026,22.3619429 C60.4918769,22.6670857 60.8833641,22.8613714 61.4610051,22.9402286 L61.4610051,23.5379429 L53.7689026,23.5379429 L53.7689026,22.9402286 C54.4108513,22.8728 54.8655179,22.6670857 55.1261333,22.3230857 C55.3089026,22.0830857 55.4014154,21.3653714 55.4014154,20.1688 L55.4014154,11.4590857 C55.4014154,10.3013714 55.2953641,9.58022857 55.0866462,9.2968 C54.8768,9.0088 54.4390564,8.82137143 53.7689026,8.72765714 L53.7689026,8.10937143 L59.9672615,8.10937143 L59.9672615,8.11165714 Z" id="Fill-10" fill="#1F3F5D" sketch:type="MSShapeGroup"></path>
            <g id="Group-14">
                <mask id="mask-4" sketch:name="Clip 13" fill="white">
                    <use xlink:href="#path-3"></use>
                </mask>
                <g id="Clip-13"></g>
                <path d="M78.7601128,14.1730286 C78.7601128,12.4061714 78.6642154,11.1947429 78.4735487,10.5330286 C78.2840103,9.87702857 77.9850359,9.37531429 77.5788821,9.03017143 C77.3566256,8.83131429 77.0542667,8.7296 76.6718051,8.7296 C76.1077026,8.7296 75.6507795,9.00845714 75.2953949,9.56731429 C74.6511897,10.5513143 74.3319077,11.8930286 74.3319077,13.5936 L74.3319077,14.1718857 L78.7601128,14.1718857 L78.7601128,14.1730286 Z M82.753959,15.2678857 L74.4097538,15.2678857 C74.5022667,17.3147429 75.0404205,18.9364571 76.0242154,20.1318857 C76.7722154,21.0358857 77.6702667,21.4884571 78.7206256,21.4884571 C79.3761128,21.4884571 79.9695487,21.3056 80.5009333,20.9398857 C81.0334462,20.5764571 81.6020615,19.9124571 82.2033949,18.9581714 L82.753959,19.3147429 C81.9382667,21.0153143 81.0334462,22.2233143 80.0293436,22.9330286 C79.025241,23.6438857 77.8677026,24.0004571 76.5567282,24.0004571 C74.2991897,24.0004571 72.5944718,23.1227429 71.4414462,21.3684571 C70.4960103,19.9467429 70.0232923,18.1878857 70.0232923,16.0873143 C70.0232923,13.5090286 70.7114974,11.4587429 72.0890359,9.9376 C73.4688308,8.41645714 75.0742667,7.65531429 76.9098564,7.65531429 C78.4566256,7.65531429 79.7991897,8.29645714 80.9341641,9.5776 C82.0668821,10.8621714 82.677241,12.7570286 82.753959,15.2678857 L82.753959,15.2678857 Z" id="Fill-12" fill="#1F3F5D" sketch:type="MSShapeGroup" mask="url(#mask-4)"></path>
            </g>
            <path d="M91.8665846,7.69531429 L92.1238154,12.9570286 L91.5529436,12.9570286 C90.8963282,11.3878857 90.2126359,10.3181714 89.5075077,9.74674286 C88.7978667,9.17531429 88.0904821,8.8896 87.380841,8.8896 C86.9352,8.8896 86.5549949,9.04274286 86.2390974,9.34788571 C85.9243282,9.65417143 85.7675077,10.0050286 85.7675077,10.4038857 C85.7675077,10.6964571 85.8724308,10.9821714 86.0822769,11.2610286 C86.4365333,11.7010286 87.4101744,12.4678857 89.0043282,13.5650286 C90.5973538,14.6610286 91.6477128,15.5890286 92.1531487,16.3536 C92.6563282,17.1193143 92.9101744,17.9718857 92.9101744,18.9147429 C92.9101744,19.7787429 92.6980718,20.6233143 92.2795077,21.4461714 C91.8598154,22.2713143 91.2629949,22.9021714 90.4879179,23.3387429 C89.7150974,23.7787429 88.8633026,23.9981714 87.9302769,23.9981714 C87.1958154,23.9981714 86.2244308,23.7661714 85.0183795,23.3010286 C84.6912,23.1821714 84.4678154,23.1216 84.3493538,23.1216 C83.9939692,23.1216 83.6927385,23.3993143 83.4434051,23.9570286 L82.9120205,23.9570286 L82.6559179,18.4164571 L83.2053538,18.4164571 C83.6916103,19.8656 84.3606359,20.9513143 85.213559,21.6758857 C86.0653538,22.3993143 86.8720205,22.7616 87.633559,22.7616 C88.1581744,22.7616 88.5857641,22.5993143 88.9140718,22.2736 C89.2412513,21.9490286 89.4059692,21.5593143 89.4059692,21.1067429 C89.4059692,20.5764571 89.2446359,20.1170286 88.9242256,19.7318857 C88.601559,19.3456 87.8704821,18.7616 86.7287385,17.9776 C85.0759179,16.8084571 84.0075077,15.9170286 83.5223795,15.3067429 C82.8003282,14.4038857 82.441559,13.4061714 82.441559,12.3170286 C82.441559,11.1353143 82.8432,10.0598857 83.6498667,9.09874286 C84.4576615,8.13531429 85.6276103,7.65302857 87.1619692,7.65302857 C87.9878154,7.65302857 88.7877128,7.85988571 89.5616615,8.27131429 C89.8504821,8.43131429 90.0874051,8.51017143 90.2713026,8.51017143 C90.4676103,8.51017143 90.6244308,8.47131429 90.7428923,8.39017143 C90.8602256,8.31131429 91.0497641,8.07931429 91.3137641,7.69417143 L91.8665846,7.69417143 L91.8665846,7.69531429 Z" id="Fill-15" fill="#1F3F5D" sketch:type="MSShapeGroup"></path>
            <path d="M102.4188,7.69531429 L102.674903,12.9570286 L102.104031,12.9570286 C101.447415,11.3878857 100.763723,10.3181714 100.056338,9.74674286 C99.3489538,9.17531429 98.6393128,8.8896 97.9319282,8.8896 C97.485159,8.8896 97.1060821,9.04274286 96.7913128,9.34788571 C96.473159,9.65302857 96.3163385,10.0050286 96.3163385,10.4038857 C96.3163385,10.6964571 96.4235179,10.9821714 96.6299795,11.2610286 C96.9853641,11.7010286 97.9612615,12.4678857 99.5542872,13.5650286 C101.147313,14.6610286 102.1988,15.5890286 102.703108,16.3536 C103.205159,17.1193143 103.461262,17.9718857 103.461262,18.9147429 C103.461262,19.7787429 103.249159,20.6233143 102.828338,21.4461714 C102.409774,22.2713143 101.81521,22.9021714 101.039005,23.3387429 C100.263928,23.7787429 99.4132615,23.9981714 98.4813641,23.9981714 C97.7446462,23.9981714 96.7755179,23.7661714 95.5672103,23.3010286 C95.2389026,23.1821714 95.0177744,23.1216 94.8993128,23.1216 C94.5461846,23.1216 94.2426974,23.3993143 93.9944923,23.9570286 L93.4619795,23.9570286 L93.2047487,18.4164571 L93.756441,18.4164571 C94.2426974,19.8656 94.9083385,20.9513143 95.7635179,21.6758857 C96.6141846,22.3993143 97.4208513,22.7616 98.1857744,22.7616 C98.7103897,22.7616 99.1357231,22.5993143 99.4640308,22.2736 C99.7923385,21.9490286 99.9548,21.5593143 99.9548,21.1067429 C99.9548,20.5764571 99.7945949,20.1170286 99.4730564,19.7318857 C99.1526462,19.3456 98.4215692,18.7616 97.2798256,17.9776 C95.6270051,16.8084571 94.5574667,15.9170286 94.0723385,15.3067429 C93.3502872,14.4038857 92.9892615,13.4061714 92.9892615,12.3170286 C92.9892615,11.1353143 93.393159,10.0598857 94.1986974,9.09874286 C95.0053641,8.13531429 96.1775692,7.65302857 97.7119282,7.65302857 C98.5389026,7.65302857 99.3388,7.85988571 100.113877,8.27131429 C100.402697,8.43131429 100.638492,8.51017143 100.821262,8.51017143 C101.017569,8.51017143 101.173262,8.47131429 101.295108,8.39017143 C101.411313,8.31131429 101.598595,8.07931429 101.865979,7.69417143 L102.4188,7.69417143 L102.4188,7.69531429 Z" id="Fill-17" fill="#1F3F5D" sketch:type="MSShapeGroup"></path>
            <path d="M108.932379,21.5402286 L118.306636,21.5402286 L118.306636,23.8796571 L103.899456,23.8796571 L111.970636,14.3459429 C113.176687,12.9196571 114.00479,11.8773714 114.452687,11.2202286 C115.391354,9.81451429 115.860687,8.60422857 115.860687,7.58251429 C115.860687,6.28994286 115.430841,5.23851429 114.571149,4.42137143 C113.711456,3.60651429 112.647559,3.19851429 111.376072,3.19851429 C108.674021,3.19851429 107.191559,4.75851429 106.925303,7.87851429 L104.41279,7.87851429 C104.591046,6.09337143 104.992687,4.74822857 105.617713,3.84422857 C106.958021,1.90137143 108.853405,0.927657143 111.307251,0.927657143 C113.248892,0.927657143 114.899456,1.54365714 116.2612,2.77451429 C117.622944,4.00651429 118.304379,5.60651429 118.304379,7.57108571 C118.304379,9.08765714 117.768482,10.6568 116.695559,12.2830857 C116.272482,12.9402286 115.201815,14.2625143 113.482431,16.2522286 L108.932379,21.5402286 Z" id="Fill-19" fill="#AA1E22" sketch:type="MSShapeGroup"></path>
            <g id="Group-23">
                <mask id="mask-6" sketch:name="Clip 22" fill="white">
                    <use xlink:href="#path-5"></use>
                </mask>
                <g id="Clip-22"></g>
                <path d="M125.934769,17.9129143 L125.934769,7.65805714 L118.844,17.9129143 L125.934769,17.9129143 Z M128.376205,17.9129143 L131.122256,17.9129143 L131.122256,20.1849143 L128.376205,20.1849143 L128.376205,23.8786286 L125.934769,23.8786286 L125.934769,20.1849143 L114.454154,20.1849143 L128.376205,0.0466285714 L128.376205,17.9129143 Z" id="Fill-21" fill="#AA1E22" sketch:type="MSShapeGroup" mask="url(#mask-6)"></path>
            </g>
        </g>
    </g>
</svg>