<?xml version="1.0" encoding="UTF-8" standalone="no"?>
<svg width="141px" height="38px" viewBox="0 0 141 38" version="1.1" xmlns="http://www.w3.org/2000/svg" xmlns:xlink="http://www.w3.org/1999/xlink" xmlns:sketch="http://www.bohemiancoding.com/sketch/ns">
    <!-- Generator: Sketch 3.2.2 (9983) - http://www.bohemiancoding.com/sketch -->
    <title>Imported Layers</title>
    <desc>Created with Sketch.</desc>
    <defs></defs>
    <g id="Page-1" stroke="none" stroke-width="1" fill="none" fill-rule="evenodd" sketch:type="MSPage">
        <g id="Imported-Layers" sketch:type="MSLayerGroup" fill="#11110F">
            <path d="M27.3150934,16.2669231 L15.5097075,16.2669231 C15.20489,16.2669231 14.9579938,16.5142154 14.9579938,16.8185077 L14.9579938,22.5860308 C14.9579938,22.8903231 15.20489,23.1379077 15.5097075,23.1379077 L20.1150249,23.1379077 L20.1150249,30.3035385 C20.1150249,30.3035385 19.0809274,30.6557692 16.2220207,30.6557692 C12.8491369,30.6557692 8.13733817,29.4242769 8.13733817,19.0713231 C8.13733817,8.71603077 13.0436701,7.35358462 17.6498651,7.35358462 C21.6370643,7.35358462 23.3548071,8.05512308 24.4477033,8.39303077 C24.7911349,8.49826154 25.1088237,8.15655385 25.1088237,7.85196923 L26.4257988,2.27941538 C26.4257988,2.13706154 26.3775311,1.96547692 26.2148838,1.84884615 C25.7711141,1.53256923 23.0631535,0.0184153846 16.2220207,0.0184153846 C8.34093983,0.0184153846 0.256842324,3.36884615 0.256842324,19.475 C0.256842324,35.5817385 9.51252697,37.9815846 17.3119917,37.9815846 C23.7699087,37.9815846 27.6874855,35.2242462 27.6874855,35.2242462 C27.8489627,35.1350923 27.8665145,34.9097231 27.8665145,34.8062462 L27.8665145,16.8185077 C27.8665145,16.5142154 27.6196183,16.2669231 27.3150934,16.2669231" id="Fill-1" sketch:type="MSShapeGroup"></path>
            <path d="M88.1551307,1.94823077 C88.1551307,1.64130769 87.9117448,1.39372308 87.6069274,1.39372308 L80.9600353,1.39372308 C80.656388,1.39372308 80.4094917,1.64130769 80.4094917,1.94823077 C80.4094917,1.94969231 80.4112469,14.7843385 80.4112469,14.7843385 L70.0500871,14.7843385 L70.0500871,1.94823077 C70.0500871,1.64130769 69.8055311,1.39372308 69.5015913,1.39372308 L62.8546992,1.39372308 C62.552222,1.39372308 62.3056183,1.64130769 62.3056183,1.94823077 L62.3056183,36.7044923 C62.3056183,37.0111231 62.552222,37.2607538 62.8546992,37.2607538 L69.5015913,37.2607538 C69.8055311,37.2607538 70.0500871,37.0111231 70.0500871,36.7044923 L70.0500871,21.8380154 L80.4112469,21.8380154 C80.4112469,21.8380154 80.39311,36.7036154 80.39311,36.7044923 C80.39311,37.0111231 80.6397137,37.2607538 80.9436535,37.2607538 L87.6066349,37.2607538 C87.9111598,37.2607538 88.1545456,37.0111231 88.1551307,36.7044923 L88.1551307,1.94823077" id="Fill-2" sketch:type="MSShapeGroup"></path>
            <path d="M39.8585353,6.50910769 C39.8585353,4.11744615 37.9395311,2.18470769 35.5720768,2.18470769 C33.2069627,2.18470769 31.2864959,4.11744615 31.2864959,6.50910769 C31.2864959,8.89813846 33.2069627,10.8361385 35.5720768,10.8361385 C37.9395311,10.8361385 39.8585353,8.89813846 39.8585353,6.50910769" id="Fill-3" sketch:type="MSShapeGroup"></path>
            <path d="M39.3831722,29.3728308 L39.3831722,13.3292308 C39.3831722,13.0246462 39.1371535,12.7756 38.8332137,12.7756 L32.2070913,12.7756 C31.9031515,12.7756 31.6310975,13.0889538 31.6310975,13.3935385 L31.6310975,36.3791538 C31.6310975,37.0546769 32.0523423,37.2554923 32.5976203,37.2554923 L38.5675954,37.2554923 C39.2225726,37.2554923 39.3831722,36.9342462 39.3831722,36.3683385 L39.3831722,29.3728308" id="Fill-4" sketch:type="MSShapeGroup"></path>
            <path d="M113.417241,12.8279231 L106.820956,12.8279231 C106.518479,12.8279231 106.272168,13.0769692 106.272168,13.3836 L106.272168,30.4257231 C106.272168,30.4257231 104.59655,31.6507846 102.217979,31.6507846 C99.8397012,31.6507846 99.2084191,30.5724615 99.2084191,28.2454 L99.2084191,13.3836 C99.2084191,13.0769692 98.9626929,12.8279231 98.6599232,12.8279231 L91.9653485,12.8279231 C91.6631639,12.8279231 91.4156826,13.0769692 91.4156826,13.3836 L91.4156826,29.3707846 C91.4156826,36.2826923 95.2709502,37.9736923 100.574539,37.9736923 C104.925355,37.9736923 108.433388,35.5718 108.433388,35.5718 C108.433388,35.5718 108.600423,36.8374923 108.675896,36.9877385 C108.751662,37.1374 108.948535,37.2885231 109.161205,37.2885231 L113.420166,37.2698154 C113.722351,37.2698154 113.969832,37.0201846 113.969832,36.7150154 L113.967784,13.3836 C113.967784,13.0769692 113.72118,12.8279231 113.417241,12.8279231" id="Fill-5" sketch:type="MSShapeGroup"></path>
            <path d="M131.445641,12.0471692 C127.699195,12.0471692 125.150956,13.7174154 125.150956,13.7174154 L125.150956,1.94823077 C125.150956,1.64130769 124.905523,1.39372308 124.602461,1.39372308 L117.936554,1.39372308 C117.633492,1.39372308 117.38718,1.64130769 117.38718,1.94823077 L117.38718,36.7044923 C117.38718,37.0111231 117.633492,37.2607538 117.937432,37.2607538 L122.562349,37.2607538 C122.770631,37.2607538 122.928305,37.1534769 123.044732,36.9655231 C123.159697,36.7787385 123.325562,35.3628 123.325562,35.3628 C123.325562,35.3628 126.051075,37.9441692 131.211324,37.9441692 C137.269058,37.9441692 140.743158,34.8737692 140.743158,24.1604 C140.743158,13.4470308 135.19472,12.0471692 131.445641,12.0471692 L131.445641,12.0471692 Z M128.843869,31.6297385 C126.555983,31.5601692 125.004106,30.5227692 125.004106,30.5227692 L125.004106,19.5162154 C125.004106,19.5162154 126.535214,18.5784923 128.413556,18.4107077 C130.788909,18.1982 133.077672,18.9152308 133.077672,24.5772308 C133.077672,30.5479077 132.044745,31.7262 128.843869,31.6297385 L128.843869,31.6297385 Z" id="Fill-6" sketch:type="MSShapeGroup"></path>
            <path d="M58.4872095,12.7723846 L53.5013091,12.7723846 C53.5013091,12.7723846 53.4937033,6.19166154 53.4937033,6.1902 C53.4937033,5.94115385 53.3652822,5.81663077 53.0768465,5.81663077 L46.2822261,5.81663077 C46.0180705,5.81663077 45.8761929,5.93267692 45.8761929,6.1864 L45.8761929,12.9884 C45.8761929,12.9884 42.4711307,13.8097846 42.2406162,13.8761385 C42.0115643,13.9424923 41.8427739,14.1538308 41.8427739,14.4058 L41.8427739,18.6802154 C41.8427739,18.9877231 42.0885,19.2356 42.3924398,19.2356 L45.8761929,19.2356 L45.8761929,29.5184 C45.8761929,37.1561077 51.2377033,37.9064615 54.8554357,37.9064615 C56.5088216,37.9064615 58.486332,37.3759231 58.8127967,37.2554923 C59.0102552,37.183 59.1249274,36.9786769 59.1249274,36.7571077 L59.1304855,32.0550462 C59.1304855,31.7484154 58.8713029,31.5002462 58.5793568,31.5002462 C58.2888734,31.5002462 57.5455519,31.6183385 56.7802905,31.6183385 C54.3309274,31.6183385 53.5013091,30.4803846 53.5013091,29.0074462 C53.5013091,27.5356769 53.5010166,19.2356 53.5010166,19.2356 L58.4872095,19.2356 C58.7914419,19.2356 59.0374606,18.9877231 59.0374606,18.6802154 L59.0374606,13.3263077 C59.0374606,13.0196769 58.7914419,12.7723846 58.4872095,12.7723846" id="Fill-7" sketch:type="MSShapeGroup"></path>
        </g>
    </g>
</svg>