<?xml version="1.0" encoding="UTF-8" standalone="no"?>
<svg width="152px" height="34px" viewBox="0 0 152 34" version="1.1" xmlns="http://www.w3.org/2000/svg" xmlns:xlink="http://www.w3.org/1999/xlink" xmlns:sketch="http://www.bohemiancoding.com/sketch/ns">
    <!-- Generator: Sketch 3.5.2 (25235) - http://www.bohemiancoding.com/sketch -->
    <title>Page 1</title>
    <desc>Created with Sketch.</desc>
    <defs>
        <path id="path-1" d="M0,0.474271186 L151.453606,0.474271186 L151.453606,34 L0,34 L0,0.474271186 Z"></path>
    </defs>
    <g id="Page-1" stroke="none" stroke-width="1" fill="none" fill-rule="evenodd" sketch:type="MSPage">
        <g sketch:type="MSLayerGroup">
            <path d="M14.017797,33.6184508 L14.3621,32.7799763 C14.7311606,33.0410271 15.0950394,33.1695356 15.4520091,33.1695356 C16.0024333,33.1695356 16.2759182,32.9782136 16.2759182,32.5938407 C16.2759182,32.4146203 16.2114333,32.2423153 16.0801606,32.0803831 C15.9511909,31.9184508 15.6857667,31.7357729 15.2804333,31.534078 C14.8768273,31.3312305 14.6039182,31.1641119 14.4617061,31.0356034 C14.3200697,30.9065186 14.2147061,30.7509254 14.1375545,30.5717051 C14.0627061,30.3913322 14.0247061,30.1936712 14.0247061,29.9752644 C14.0247061,29.5661119 14.1726758,29.2312983 14.4720697,28.9627559 C14.7708879,28.693061 15.1543424,28.5582136 15.6195545,28.5582136 C16.2275545,28.5582136 16.6754939,28.6711627 16.9616455,28.9005186 L16.6772212,29.706722 C16.3501909,29.4716034 16.0030091,29.3551966 15.6397061,29.3551966 C15.423797,29.3551966 15.2568273,29.4105186 15.1382212,29.5240441 C15.0190394,29.6392983 14.9580091,29.7874 14.9580091,29.9683492 C14.9580091,30.2668576 15.2959788,30.5826542 15.9650091,30.9094 C16.3156455,31.0776712 16.5695545,31.236722 16.7273121,31.3836712 C16.8821909,31.5283153 17.000797,31.6988915 17.0808273,31.8907898 C17.1643121,32.0821119 17.2046152,32.297061 17.2046152,32.5344847 C17.2046152,32.9632305 17.0359182,33.3130271 16.6996758,33.5884847 C16.3640091,33.8622136 15.9131909,33.9993661 15.3472212,33.9993661 C14.8555242,34.0010949 14.4098879,33.8754678 14.017797,33.6184508" id="Fill-1" fill="#0060A9" sketch:type="MSShapeGroup"></path>
            <path d="M21.2608848,29.4775966 L21.2608848,33.9171898 L20.324703,33.9171898 L20.324703,29.4775966 L18.6492485,29.4775966 L18.6492485,28.6477661 L23.0111879,28.6477661 L23.0111879,29.4775966 L21.2608848,29.4775966 Z" id="Fill-3" fill="#0060A9" sketch:type="MSShapeGroup"></path>
            <mask id="mask-2" sketch:name="Clip 6" fill="white">
                <use xlink:href="#path-1"></use>
            </mask>
            <g id="Clip-6"></g>
            <path d="M24.7489394,28.6475932 L25.6839697,28.6475932 L25.6839697,33.9175932 L24.7489394,33.9175932 L24.7489394,28.6475932 Z" id="Fill-5" fill="#0060A9" sketch:type="MSShapeGroup" mask="url(#mask-2)"></path>
            <path d="M28.8550697,29.4573695 L28.8550697,30.9234034 C29.0272212,30.9366576 29.160797,30.9447254 29.2511909,30.9447254 C29.640403,30.9447254 29.9259788,30.8899797 30.1061909,30.7787593 C30.2898576,30.6692678 30.3785242,30.4543186 30.3785242,30.1350644 C30.3785242,29.8757424 30.2800697,29.6942169 30.0871909,29.5899119 C29.8937364,29.4861831 29.5880091,29.4377763 29.1717364,29.4377763 C29.070403,29.4377763 28.9644636,29.4423864 28.8550697,29.4573695 L28.8550697,29.4573695 Z M30.8558273,33.9171322 L29.4463727,31.7411322 C29.3064636,31.7382508 29.1089788,31.7296068 28.8550697,31.7169288 L28.8550697,33.9171322 L27.8837667,33.9171322 L27.8837667,28.6442508 C27.9344333,28.6442508 28.1388273,28.6321492 28.4917667,28.6165898 C28.8441303,28.5975729 29.1268273,28.5883525 29.3438879,28.5883525 C30.6819485,28.5883525 31.3492515,29.1075729 31.3492515,30.1437085 C31.3492515,30.4577763 31.2577061,30.741878 31.0723121,30.9971661 C30.8874939,31.2553356 30.6554636,31.4397424 30.376797,31.5423186 L31.9301909,33.9159797 L30.8558273,33.9159797 L30.8558273,33.9171322 Z" id="Fill-7" fill="#0060A9" sketch:type="MSShapeGroup" mask="url(#mask-2)"></path>
            <path d="M33.4981515,28.6475932 L34.4331818,28.6475932 L34.4331818,33.9175932 L33.4981515,33.9175932 L33.4981515,28.6475932 Z" id="Fill-8" fill="#0060A9" sketch:type="MSShapeGroup" mask="url(#mask-2)"></path>
            <path d="M43.4064212,33.9876102 L40.8540879,30.6533051 L40.8540879,33.9173051 L39.9564818,33.9173051 L39.9564818,28.6473051 L40.404997,28.6473051 L42.8916939,31.8312034 L42.8916939,28.6473051 L43.7898758,28.6473051 L43.7898758,33.9876102 L43.4064212,33.9876102 Z" id="Fill-9" fill="#0060A9" sketch:type="MSShapeGroup" mask="url(#mask-2)"></path>
            <path d="M46.6875485,31.2334373 C46.6875485,31.8494712 46.7900333,32.3254712 46.9990333,32.6625898 C47.2080333,32.9985559 47.5103061,33.1691322 47.9081545,33.1691322 C48.3727909,33.1691322 48.7314879,33.0048949 48.9738818,32.6752678 C49.2197303,32.3439119 49.3435182,31.8644542 49.3435182,31.232861 C49.3435182,29.9979119 48.8892455,29.3836068 47.9778212,29.3836068 C47.5615485,29.3836068 47.2431545,29.5513017 47.0186091,29.8820814 C46.7963667,30.2209288 46.6875485,30.6692678 46.6875485,31.2334373 M45.7162455,31.2334373 C45.7162455,30.4814034 45.9200636,29.8480814 46.3317303,29.3294373 C46.7422455,28.8107932 47.2920939,28.5503186 47.978397,28.5503186 C48.7360939,28.5503186 49.3153061,28.7860136 49.7143061,29.2585559 C50.1133061,29.7253356 50.3142455,30.3851661 50.3142455,31.232861 C50.3142455,32.0805559 50.106397,32.7559458 49.6866697,33.2549966 C49.2698212,33.7500136 48.6767909,34.0001153 47.9087303,34.0001153 C47.2005485,34.0001153 46.6587606,33.7569288 46.2816394,33.2596068 C45.9027909,32.7663186 45.7162455,32.0915051 45.7162455,31.2334373" id="Fill-10" fill="#0060A9" sketch:type="MSShapeGroup" mask="url(#mask-2)"></path>
            <path d="M55.6930303,33.9876102 L53.1395455,30.6533051 L53.1395455,33.9173051 L52.2419394,33.9173051 L52.2419394,28.6473051 L52.6898788,28.6473051 L55.1788788,31.8312034 L55.1788788,28.6473051 L56.0759091,28.6473051 L56.0759091,33.9876102 L55.6930303,33.9876102 Z" id="Fill-11" fill="#0060A9" sketch:type="MSShapeGroup" mask="url(#mask-2)"></path>
            <path d="M58.104303,31.3577966 L60.0037273,31.3577966 L60.0037273,32.2049153 L58.104303,32.2049153 L58.104303,31.3577966 Z" id="Fill-12" fill="#0060A9" sketch:type="MSShapeGroup" mask="url(#mask-2)"></path>
            <path d="M61.8174788,33.6184508 L62.1617818,32.7799763 C62.5302667,33.0410271 62.895297,33.1695356 63.2528424,33.1695356 C63.8003879,33.1695356 64.0750242,32.9782136 64.0750242,32.5938407 C64.0750242,32.4146203 64.0116909,32.2423153 63.8821455,32.0803831 C63.750297,31.9184508 63.4837212,31.7357729 63.0801152,31.534078 C62.6730545,31.3312305 62.401297,31.1641119 62.2613879,31.0356034 C62.1232061,30.9065186 62.0120848,30.7509254 61.9366606,30.5717051 C61.8595091,30.3913322 61.8232364,30.1936712 61.8232364,29.9752644 C61.8232364,29.5661119 61.9712061,29.2312983 62.2717515,28.9627559 C62.5705697,28.693061 62.9528727,28.5582136 63.4192364,28.5582136 C64.0272364,28.5582136 64.4746,28.6711627 64.7607515,28.9005186 L64.4763273,29.706722 C64.1458424,29.4716034 63.8026909,29.3551966 63.4388121,29.3551966 C63.222903,29.3551966 63.0530545,29.4105186 62.9373273,29.5240441 C62.8181455,29.6392983 62.7565394,29.7874 62.7565394,29.9683492 C62.7565394,30.2668576 63.0945091,30.5826542 63.7600848,30.9094 C64.1141758,31.0776712 64.3680848,31.236722 64.5241152,31.3836712 C64.6807212,31.5283153 64.7993273,31.6988915 64.8799333,31.8907898 C64.9634182,32.0821119 65.0019939,32.297061 65.0019939,32.5344847 C65.0019939,32.9632305 64.8344485,33.3130271 64.4982061,33.5884847 C64.1608121,33.8622136 63.7105697,33.9993661 63.1457515,33.9993661 C62.6552061,34.0010949 62.2101455,33.8754678 61.8174788,33.6184508" id="Fill-13" fill="#0060A9" sketch:type="MSShapeGroup" mask="url(#mask-2)"></path>
            <path d="M69.0577455,29.4775966 L69.0577455,33.9171898 L68.1250182,33.9171898 L68.1250182,29.4775966 L66.4461091,29.4775966 L66.4461091,28.6477661 L70.8109273,28.6477661 L70.8109273,29.4775966 L69.0577455,29.4775966 Z" id="Fill-14" fill="#0060A9" sketch:type="MSShapeGroup" mask="url(#mask-2)"></path>
            <path d="M72.8727152,31.2334373 C72.8727152,31.8494712 72.9752,32.3254712 73.1847758,32.6625898 C73.3932,32.9985559 73.6966242,33.1691322 74.0933212,33.1691322 C74.5614121,33.1691322 74.9166545,33.0048949 75.1607758,32.6752678 C75.404897,32.3439119 75.5286848,31.8644542 75.5286848,31.232861 C75.5286848,29.9979119 75.0755636,29.3836068 74.1658667,29.3836068 C73.7490182,29.3836068 73.428897,29.5513017 73.2072303,29.8820814 C72.9849879,30.2209288 72.8727152,30.6692678 72.8727152,31.2334373 M71.9008364,31.2334373 C71.9008364,30.4814034 72.1069576,29.8480814 72.5192,29.3294373 C72.9279879,28.8107932 73.4766848,28.5503186 74.1658667,28.5503186 C74.9218364,28.5503186 75.499897,28.7860136 75.9012,29.2585559 C76.3013515,29.7253356 76.5005636,30.3851661 76.5005636,31.232861 C76.5005636,32.0805559 76.2932909,32.7559458 75.8735636,33.2549966 C75.4544121,33.7500136 74.8619576,34.0001153 74.0927455,34.0001153 C73.3874424,34.0001153 72.8450788,33.7569288 72.4668061,33.2596068 C72.0908364,32.7663186 71.9008364,32.0915051 71.9008364,31.2334373" id="Fill-15" fill="#0060A9" sketch:type="MSShapeGroup" mask="url(#mask-2)"></path>
            <path d="M79.3634606,29.4618644 L79.3634606,31.1445763 C79.5212182,31.156678 79.6455818,31.1647458 79.7359758,31.1647458 C80.1649152,31.1647458 80.4746727,31.0944407 80.6727333,30.9549831 C80.8690667,30.8109153 80.9669455,30.5792542 80.9669455,30.2605763 C80.9669455,29.7154237 80.5259152,29.4422712 79.6461576,29.4422712 C79.5482788,29.4422712 79.4544303,29.450339 79.3634606,29.4618644 M79.3634606,31.9738305 L79.3634606,33.9170169 L78.426703,33.9170169 L78.426703,28.6522034 C79.0525515,28.6245424 79.4158545,28.6112881 79.5223697,28.6112881 C80.3531879,28.6112881 80.9617636,28.7409492 81.348097,28.995661 C81.7298242,29.2503729 81.9232788,29.6485763 81.9232788,30.1868136 C81.9232788,31.3952542 81.2104909,31.9986102 79.7854909,31.9986102 C79.6824303,31.9980339 79.5402182,31.9905424 79.3634606,31.9738305" id="Fill-16" fill="#0060A9" sketch:type="MSShapeGroup" mask="url(#mask-2)"></path>
            <path d="M11.8623333,1.17784068 L10.5000909,3.13831525 L8.61793939,1.52245085 L7.77733333,3.94567119 L5.44551515,2.99482373 L5.39427273,5.48719661 L2.88339394,5.23709492 L3.47584848,7.60384068 L1.01909091,8.10865424 L2.18384848,10.2080102 L0,11.3893661 L1.77275758,13.1297051 L0,14.8164508 L2.18384848,15.9626542 L0.89530303,18.0429932 L3.34975758,18.5812305 L2.74060606,20.9134 L5.23018182,20.6811627 L5.30387879,23.1896712 L7.65181818,22.2941458 L8.42045455,24.6971966 L10.4471212,23.1383831 L11.8623333,25.1103831 L11.8623333,1.17784068 Z" id="Fill-17" fill="#FDB827" sketch:type="MSShapeGroup" mask="url(#mask-2)"></path>
            <path d="M28.2554182,25.8162576 L28.2554182,14.4043593 L18.1986606,14.4043593 L18.1986606,25.8162576 L13.7019939,25.8162576 L13.7019939,0.474155932 L18.1986606,0.474155932 L18.1986606,10.3992746 L28.2554182,10.3992746 L28.2554182,0.474155932 L32.7181152,0.474155932 L32.7181152,25.8162576 L28.2554182,25.8162576 Z" id="Fill-18" fill="#0060A9" sketch:type="MSShapeGroup" mask="url(#mask-2)"></path>
            <path d="M38.4388424,16.5050407 C38.4388424,20.5838881 39.9035697,22.6250407 42.8376303,22.6250407 C44.1837515,22.6250407 45.2494788,22.0954475 46.0371152,21.0345322 C46.8236,19.9753458 47.2191455,18.4632102 47.2191455,16.5044644 C47.2191455,12.480939 45.7578727,10.4680237 42.8376303,10.4680237 C41.4897818,10.4680237 40.4211758,10.999922 39.6272061,12.0625661 C38.8326606,13.1200237 38.4388424,14.6027695 38.4388424,16.5050407 M33.9398727,16.5050407 C33.9398727,13.6749729 34.7545697,11.3698881 36.3845394,9.59324407 C38.0150848,7.81602373 40.1643879,6.9245322 42.8376303,6.9245322 C45.6467515,6.9245322 47.8288727,7.77914237 49.3828424,9.48893898 C50.9391152,11.1981593 51.7146606,13.5372441 51.7146606,16.5050407 C51.7146606,19.4607356 50.925297,21.8107695 49.3396606,23.5528373 C47.756903,25.3006678 45.5903273,26.170261 42.8376303,26.170261 C40.0256303,26.170261 37.8417818,25.2897186 36.2797515,23.5280576 C34.7217515,21.7675492 33.9398727,19.4267356 33.9398727,16.5050407" id="Fill-19" fill="#0060A9" sketch:type="MSShapeGroup" mask="url(#mask-2)"></path>
            <path d="M53.0208818,10.7538542 L50.8617909,10.7538542 L50.8617909,7.2806678 L53.0208818,7.2806678 L53.0208818,3.51646441 L57.3436697,1.92941356 L57.3436697,7.28009153 L62.442003,7.28009153 L62.442003,10.753278 L57.3436697,10.753278 L57.3436697,18.8804305 C57.3436697,20.2081593 57.5509424,21.1469051 57.9677909,21.6955153 C58.3857909,22.2464305 59.1141242,22.5184305 60.1579727,22.5184305 C61.2006697,22.5184305 62.1748515,22.2354814 63.0770636,21.6684305 L63.0770636,25.6516169 C62.0723667,25.9973797 60.6410333,26.1696847 58.7784576,26.1696847 C56.9297,26.1696847 55.5075788,25.6458542 54.5138212,24.5993458 C53.5200636,23.5586 53.0208818,22.0677864 53.0208818,20.1390068 L53.0208818,10.7538542 L53.0208818,10.7538542 Z" id="Fill-20" fill="#0060A9" sketch:type="MSShapeGroup" mask="url(#mask-2)"></path>
            <path d="M80.4595879,26.170261 L68.1700424,10.1147695 L68.1700424,25.8164305 L63.8501333,25.8164305 L63.8501333,0.474328814 L66.0115273,0.474328814 L77.9786485,15.7875831 L77.9786485,0.474328814 L82.2991333,0.474328814 L82.2991333,26.170261 L80.4595879,26.170261 Z" id="Fill-21" fill="#0060A9" sketch:type="MSShapeGroup" mask="url(#mask-2)"></path>
            <path d="M87.8449455,14.6155627 L96.9102485,14.6155627 C96.6137333,11.8995966 95.1179152,10.5395966 92.4302788,10.5395966 C89.9712182,10.5401729 88.4431576,11.8995966 87.8449455,14.6155627 M100.904279,17.8766814 L87.6681879,17.8766814 C87.7505212,19.3559695 88.2589152,20.5056305 89.1916424,21.3268169 C90.126097,22.1456983 91.3835515,22.5577322 92.9651576,22.5577322 C94.9371273,22.5577322 96.4358242,22.0477322 97.464703,21.0317661 L99.1436121,24.3268847 C97.6224606,25.5549186 95.351097,26.1703763 92.3329758,26.1703763 C89.5106121,26.1703763 87.2784,25.341122 85.6357636,23.6843424 C83.9948545,22.028139 83.172097,19.7155627 83.172097,16.7466136 C83.172097,13.8254949 84.0743091,11.4587492 85.8775818,9.64522373 C87.6802788,7.83285085 89.8445515,6.92522373 92.3663697,6.92522373 C95.0522788,6.92522373 97.2056121,7.72796949 98.8309758,9.33288475 C100.452885,10.9418339 101.267582,12.9870203 101.267582,15.4684441 C101.267582,16.0009186 101.146097,16.8013593 100.904279,17.8766814" id="Fill-22" fill="#0060A9" sketch:type="MSShapeGroup" mask="url(#mask-2)"></path>
            <path d="M120.058121,26.170261 L118.502424,26.170261 L113.401788,14.758939 L108.337424,26.170261 L106.743727,26.170261 L99.7321515,7.28009153 L104.265667,7.28009153 L108.037455,18.3387356 L112.551394,7.28009153 L114.107667,7.28009153 L118.802394,18.4067356 L122.821758,7.28009153 L127.069121,7.28009153 L120.058121,26.170261 Z" id="Fill-23" fill="#0060A9" sketch:type="MSShapeGroup" mask="url(#mask-2)"></path>
            <path d="M125.674579,24.6276983 L127.210124,21.1752576 C128.499821,22.2119695 129.955912,22.7329186 131.580124,22.7329186 C133.260761,22.7329186 134.101942,22.1289864 134.101942,20.9268847 C134.101942,20.2215288 133.848609,19.6446814 133.339639,19.1917322 C132.835852,18.7439695 131.849579,18.2109186 130.388882,17.5983424 C127.19573,16.2665797 125.603761,14.4098339 125.603761,12.0177322 C125.603761,10.4128169 126.213488,9.16230847 127.43467,8.26851186 C128.654124,7.37241017 130.213276,6.92464746 132.113276,6.92464746 C134.036306,6.92464746 135.842458,7.35742712 137.535761,8.2178 L136.293852,11.5676644 C135.351912,10.7649186 134.039185,10.3644102 132.362003,10.3644102 C130.855245,10.3644102 130.100427,10.9643085 130.100427,12.1652576 C130.100427,12.6429864 130.347427,13.0682746 130.84373,13.4503424 C131.338882,13.8318339 132.397124,14.3429864 134.020185,14.9855288 C135.643821,15.6274949 136.812033,16.4037322 137.528276,17.3182746 C138.240488,18.2293593 138.600912,19.3340712 138.600912,20.6260712 C138.600912,22.3485458 137.959518,23.7010542 136.690548,24.6887831 C135.417548,25.6753593 133.685094,26.1703763 131.495488,26.1703763 C130.26567,26.1703763 129.275942,26.0689525 128.532639,25.8661051 C127.789336,25.6644102 126.835882,25.2506475 125.674579,24.6276983" id="Fill-24" fill="#0060A9" sketch:type="MSShapeGroup" mask="url(#mask-2)"></path>
            <path d="M138.991218,25.0351797 C138.991218,24.7360949 139.096006,24.4825356 139.30443,24.2739254 C139.512279,24.0658915 139.767915,23.9615864 140.063855,23.9615864 C140.360945,23.9615864 140.614279,24.0658915 140.823279,24.2739254 C141.034006,24.4831119 141.136491,24.7360949 141.136491,25.0351797 C141.136491,25.3285017 141.035158,25.582061 140.823279,25.7952814 C140.614279,26.0033153 140.361521,26.1070441 140.063855,26.1070441 C139.767915,26.1070441 139.512279,26.0033153 139.30443,25.7952814 C139.096006,25.582061 138.991218,25.3279254 138.991218,25.0351797" id="Fill-25" fill="#0060A9" sketch:type="MSShapeGroup" mask="url(#mask-2)"></path>
            <path d="M145.579209,20.827939 C145.314361,20.6481424 145.019573,20.5593966 144.703482,20.5593966 C144.360906,20.5593966 144.049997,20.7155661 143.784573,21.0279051 C143.51627,21.344278 143.382118,21.7251932 143.382118,22.1781424 L143.382118,25.8161424 L141.896664,25.8161424 L141.896664,19.4373966 L143.382118,19.4373966 L143.382118,20.0223119 C143.797239,19.5497695 144.35227,19.3140746 145.043179,19.3140746 C145.552148,19.3140746 145.938482,19.3912949 146.207361,19.5463119 L145.579209,20.827939 Z" id="Fill-26" fill="#0060A9" sketch:type="MSShapeGroup" mask="url(#mask-2)"></path>
            <path d="M146.880306,22.6119017 C146.880306,24.0145458 147.3887,24.7187492 148.396852,24.7187492 C148.859761,24.7187492 149.226518,24.5331898 149.498852,24.170139 C149.770609,23.8047831 149.904761,23.2867153 149.904761,22.6119017 C149.904761,21.2300034 149.402124,20.532139 148.396852,20.532139 C147.933367,20.532139 147.566609,20.7188508 147.291973,21.0847831 C147.018488,21.4478339 146.880306,21.9589864 146.880306,22.6119017 M145.334973,22.6119017 C145.334973,21.6380034 145.615367,20.844478 146.177882,20.2330542 C146.736942,19.6216305 147.479094,19.314478 148.397427,19.314478 C149.364124,19.314478 150.114912,19.6106814 150.650367,20.1950203 C151.185245,20.785122 151.453548,21.5890203 151.453548,22.6119017 C151.453548,23.6295966 151.180064,24.4392576 150.634245,25.0362746 C150.091306,25.6367492 149.343397,25.9364102 148.398003,25.9364102 C147.430155,25.9364102 146.678215,25.6350203 146.141033,25.0282068 C145.603276,24.4213932 145.334973,23.6151898 145.334973,22.6119017" id="Fill-27" fill="#0060A9" sketch:type="MSShapeGroup" mask="url(#mask-2)"></path>
        </g>
    </g>
</svg>