<?xml version="1.0" encoding="UTF-8" standalone="no"?>
<svg width="183px" height="68px" viewBox="0 0 183 68" version="1.1" xmlns="http://www.w3.org/2000/svg" xmlns:xlink="http://www.w3.org/1999/xlink">
    <!-- Generator: Sketch 3.6.1 (26313) - http://www.bohemiancoding.com/sketch -->
    <title>Group</title>
    <desc>Created with Sketch.</desc>
    <defs></defs>
    <g id="Page-1" stroke="none" stroke-width="1" fill="none" fill-rule="evenodd">
        <g id="Group" fill="#4476AE">
            <path d="M0.276687251,4.82109091 L33.3665139,4.82109091 L33.3665139,0.101454545 L0.276687251,0.101454545 L0.276687251,4.82109091 Z" id="Fill-1"></path>
            <path d="M0.276687251,13.8247273 L33.3665139,13.8247273 L33.3665139,9.10509091 L0.276687251,9.10509091 L0.276687251,13.8247273 Z" id="Fill-2"></path>
            <path d="M9.7259761,22.8334545 L23.9190478,22.8334545 L23.9190478,18.0981818 L9.7259761,18.0981818 L9.7259761,22.8334545 Z" id="Fill-3"></path>
            <path d="M9.7259761,31.8054545 L23.9190478,31.8054545 L23.9190478,27.1029091 L9.7259761,27.1029091 L9.7259761,31.8054545 Z" id="Fill-4"></path>
            <path d="M9.7259761,40.812 L23.9190478,40.812 L23.9190478,36.1116364 L9.7259761,36.1116364 L9.7259761,40.812 Z" id="Fill-5"></path>
            <path d="M9.7259761,49.8254545 L23.9190478,49.8254545 L23.9190478,45.1054545 L9.7259761,45.1054545 L9.7259761,49.8254545 Z" id="Fill-6"></path>
            <path d="M0.276687251,58.8316364 L33.3665139,58.8316364 L33.3665139,54.112 L0.276687251,54.112 L0.276687251,58.8316364 Z" id="Fill-7"></path>
            <path d="M0.276687251,67.8207273 L33.3665139,67.8207273 L33.3665139,63.1032727 L0.276687251,63.1032727 L0.276687251,67.8207273 Z" id="Fill-8"></path>
            <path d="M38.0742072,9.10509091 L89.0728805,9.10509091 C89.508508,9.88436364 90.5000618,12.8196364 90.6236414,13.8247273 L38.0742072,13.8247273 L38.0742072,9.10509091" id="Fill-9"></path>
            <path d="M47.5475558,22.8334545 L61.7078187,22.8334545 L61.7078187,18.0981818 L47.5475558,18.0981818 L47.5475558,22.8334545 Z" id="Fill-10"></path>
            <path d="M75.8852151,18.0981818 L91.0096912,18.0981818 C91.0541653,19.0923636 90.5893745,21.8829091 90.21499,22.8334545 L75.8852151,22.8334545 L75.8852151,18.0981818" id="Fill-11"></path>
            <path d="M47.5475558,36.1116364 L83.9663785,36.1116364 C85.1529622,36.9272727 87.3303705,39.6072727 88.2070936,40.8090909 L47.5475558,40.8090909 L47.5475558,36.1116364" id="Fill-12"></path>
            <path d="M47.5475558,49.8254545 L61.7078187,49.8254545 L61.7078187,45.1054545 L47.5475558,45.1054545 L47.5475558,49.8254545 Z" id="Fill-13"></path>
            <path d="M75.8852151,45.1054545 L90.2769622,45.1054545 C90.5893745,45.7734545 91.1303546,48.9058182 91.0946295,49.8254545 L75.8852151,49.8254545 L75.8852151,45.1054545" id="Fill-14"></path>
            <path d="M38.0742072,54.112 L90.4953227,54.112 C90.4224143,55.1930909 89.4173725,58.1465455 88.9471135,58.8316364 L38.0742072,58.8316364 L38.0742072,54.112" id="Fill-15"></path>
            <path d="M38.0742072,63.1032727 L85.4752171,63.1032727 C81.2746016,66.616 77.5635657,67.8207273 71.0554004,67.8207273 L38.0742072,67.8207273 L38.0742072,63.1032727" id="Fill-16"></path>
            <path d="M104.248028,27.1029091 L131.116584,27.1029091 L132.613028,31.3269091 L134.113847,27.1029091 L160.96053,27.1029091 L160.96053,31.8054545 L146.788966,31.8054545 L146.788966,27.9978182 L145.434329,31.8054545 L119.776781,31.8054545 L118.430163,27.9978182 L118.430163,31.8054545 L104.248028,31.8054545 L104.248028,27.1029091" id="Fill-17"></path>
            <path d="M104.248028,40.812 L118.430163,40.812 L118.430163,36.1116364 L104.248028,36.1116364 L104.248028,40.812 Z" id="Fill-18"></path>
            <path d="M104.248028,49.8254545 L118.430163,49.8254545 L118.430163,45.1054545 L104.248028,45.1054545 L104.248028,49.8254545 Z" id="Fill-19"></path>
            <path d="M94.8023845,58.8167273 L118.430163,58.8167273 L118.430163,54.112 L94.8023845,54.112 L94.8023845,58.8167273 Z" id="Fill-20"></path>
            <path d="M94.8023845,67.8207273 L118.430163,67.8207273 L118.430163,63.1032727 L94.8023845,63.1032727 L94.8023845,67.8207273 Z" id="Fill-21"></path>
            <path d="M143.748687,0.101454545 L170.411641,0.101454545 L170.411641,4.82109091 L142.058671,4.82109091 L143.748687,0.101454545" id="Fill-22"></path>
            <path d="M140.539261,9.10509091 L170.411641,9.10509091 L170.411641,13.8247273 L138.849245,13.8247273 L140.539261,9.10509091" id="Fill-23"></path>
            <path d="M137.339313,18.0981818 L160.96053,18.0981818 L160.96053,22.8334545 L135.65039,22.8334545 L137.339313,18.0981818" id="Fill-24"></path>
            <path d="M146.788966,40.812 L160.96053,40.812 L160.96053,36.1116364 L146.788966,36.1116364 L146.788966,40.812 Z" id="Fill-25"></path>
            <path d="M146.788966,49.8254545 L160.96053,49.8254545 L160.96053,45.1054545 L146.788966,45.1054545 L146.788966,49.8254545 Z" id="Fill-26"></path>
            <path d="M146.788966,58.8167273 L170.411641,58.8167273 L170.411641,54.112 L146.788966,54.112 L146.788966,58.8167273 Z" id="Fill-27"></path>
            <path d="M146.788966,67.8207273 L170.411641,67.8207273 L170.411641,63.1032727 L146.788966,63.1032727 L146.788966,67.8207273 Z" id="Fill-28"></path>
            <path d="M121.275777,36.1116364 L143.938249,36.1116364 L142.313122,40.812 L122.923506,40.812 L121.275777,36.1116364" id="Fill-29"></path>
            <path d="M124.415211,45.1054545 L140.812303,45.1054545 L139.153637,49.8254545 L126.074606,49.8254545 L124.415211,45.1054545" id="Fill-30"></path>
            <path d="M127.581986,54.112 L137.654641,54.112 L136.013839,58.8167273 L129.232631,58.8167273 L127.581986,54.112" id="Fill-31"></path>
            <path d="M130.747303,63.1032727 L134.51302,63.1032727 L132.865291,67.8207273 L132.382273,67.8207273 L130.747303,63.1032727" id="Fill-32"></path>
            <path d="M47.5475558,31.8127273 L83.9663785,31.8127273 C85.1529622,30.9952727 87.3303705,28.3174545 88.2070936,27.1127273 L47.5475558,27.1127273 L47.5475558,31.8127273" id="Fill-33"></path>
            <path d="M121.481014,0.101454545 L94.8176952,0.101454545 L94.8176952,4.82109091 L123.170665,4.82109091 L121.481014,0.101454545" id="Fill-34"></path>
            <path d="M124.692263,9.10509091 L94.8176952,9.10509091 L94.8176952,13.8247273 L126.380821,13.8247273 L124.692263,9.10509091" id="Fill-35"></path>
            <path d="M127.891482,18.0981818 L104.270994,18.0981818 L104.270994,22.8334545 L129.579311,22.8334545 L127.891482,18.0981818" id="Fill-36"></path>
            <path d="M38.0742072,4.82109091 L85.4752171,4.82109091 C81.2746016,1.30872727 77.5635657,0.101454545 71.0554004,0.101454545 L38.0742072,0.101454545 L38.0742072,4.82109091" id="Fill-37"></path>
            <path d="M176.542141,60.892 L176.542141,65.8636364 L177.425791,65.8636364 L177.425791,63.9141818 L178.119878,63.9141818 C178.589044,63.9141818 178.914215,63.9669091 179.098309,64.0709091 C179.415825,64.2574545 179.568203,64.6370909 179.568203,65.208 L179.568203,65.6 L179.589711,65.7596364 C179.594086,65.7792727 179.598825,65.7981818 179.599918,65.8152727 C179.605022,65.8294545 179.610125,65.8490909 179.612313,65.8636364 L180.436906,65.8636364 L180.404827,65.8032727 C180.384777,65.7618182 180.369102,65.6774545 180.359988,65.544 C180.353062,65.4112727 180.350875,65.2901818 180.350875,65.1763636 L180.350875,64.8112727 C180.350875,64.5621818 180.260833,64.3029091 180.080384,64.0418182 C179.903217,63.7807273 179.620333,63.6185455 179.232825,63.5556364 C179.539769,63.5050909 179.778544,63.4272727 179.952066,63.3163636 C180.271769,63.1061818 180.436906,62.7770909 180.436906,62.3316364 C180.436906,61.7054545 180.177353,61.2869091 179.659703,61.0712727 C179.368799,60.9527273 178.914215,60.892 178.292671,60.892 L176.542141,60.892 L176.542141,60.892 Z M179.589711,62.4167273 C179.589711,62.7938182 179.415825,63.0505455 179.069145,63.1832727 C178.8825,63.256 178.59998,63.2923636 178.226689,63.2923636 L177.425791,63.2923636 L177.425791,61.5138182 L178.182944,61.5138182 C178.675076,61.5138182 179.032691,61.5745455 179.253604,61.6978182 C179.47889,61.8185455 179.589711,62.0581818 179.589711,62.4167273 L179.589711,62.4167273 Z M182.929643,63.3887273 C182.929643,62.1381818 182.485996,61.0734545 181.595056,60.1934545 C180.709219,59.3127273 179.636737,58.8749091 178.37688,58.8749091 C177.124315,58.8749091 176.059488,59.3127273 175.174016,60.1934545 C174.285627,61.0785455 173.844167,62.1432727 173.844167,63.3887273 C173.844167,64.6469091 174.281618,65.7185455 175.163444,66.604 C176.043448,67.492 177.116659,67.9363636 178.37688,67.9363636 C179.636737,67.9363636 180.709219,67.492 181.595056,66.604 C182.485996,65.7163636 182.929643,64.6443636 182.929643,63.3887273 L182.929643,63.3887273 Z M178.373964,59.4941818 C179.458112,59.4941818 180.381496,59.8763636 181.147398,60.6410909 C181.906375,61.3981818 182.287321,62.3196364 182.287321,63.396 C182.287321,64.48 181.906375,65.404 181.147398,66.1687273 C180.384777,66.9330909 179.461028,67.3149091 178.373964,67.3149091 C177.2869,67.3149091 176.361693,66.9330909 175.602353,66.1687273 C174.844835,65.404 174.468627,64.48 174.468627,63.396 C174.468627,62.3196364 174.847022,61.3981818 175.604904,60.6410909 C176.373723,59.8763636 177.29492,59.4941818 178.373964,59.4941818 L178.373964,59.4941818 Z" id="Fill-38"></path>
        </g>
    </g>
</svg>