<?xml version="1.0" encoding="UTF-8" standalone="no"?>
<svg width="190px" height="75px" viewBox="0 0 190 75" version="1.1" xmlns="http://www.w3.org/2000/svg" xmlns:xlink="http://www.w3.org/1999/xlink" xmlns:sketch="http://www.bohemiancoding.com/sketch/ns">
    <!-- Generator: Sketch 3.3.2 (12043) - http://www.bohemiancoding.com/sketch -->
    <title>Opera_logo_PMS_flat</title>
    <desc>Created with Sketch.</desc>
    <defs>
        <path id="path-1" d="M0.0303191489,0.411329787 L189.507314,0.411329787 L189.507314,74.787234 L0.0303191489,74.787234 L0.0303191489,0.411329787 Z"></path>
    </defs>
    <g id="Page-1" stroke="none" stroke-width="1" fill="none" fill-rule="evenodd" sketch:type="MSPage">
        <g id="Opera_logo_PMS_flat" sketch:type="MSLayerGroup">
            <path d="M89.8871809,22.5064096 C85.4044947,22.5064096 84.1144149,25.3240691 84.1144149,31.0978457 C84.1144149,37.5492553 85.4368351,40.2653457 89.8871809,40.2653457 C94.369867,40.2653457 95.7605053,37.5148936 95.7605053,31.0978457 C95.7605053,25.3240691 94.4027128,22.5064096 89.8871809,22.5064096 L89.8871809,22.5064096 Z M89.8871809,44.1360904 C81.3983245,44.1360904 79.4963032,38.3299734 79.4963032,31.0978457 C79.4963032,24.5777128 81.4306649,18.6007979 89.8871809,18.6007979 C98.3436968,18.6007979 100.380638,24.5777128 100.380638,31.0978457 C100.380638,38.3299734 98.3436968,44.1360904 89.8871809,44.1360904 L89.8871809,44.1360904 Z" id="Fill-1" fill="#DA2F2A" sketch:type="MSShapeGroup"></path>
            <path d="M111.022154,23.0142553 L107.28633,23.0142553 L107.28633,31.232766 L111.022154,31.232766 C114.078324,31.232766 115.50383,29.7041755 115.50383,26.9188564 C115.50383,24.3053457 114.010612,23.0142553 111.022154,23.0142553 L111.022154,23.0142553 Z M111.022154,35.1055319 L107.048324,35.1055319 C107.115532,35.3425266 107.28633,35.7503191 107.28633,35.9868085 L107.28633,43.6267287 L102.735426,43.6267287 L102.735426,19.1445213 L111.022154,19.1445213 C117.271436,19.1445213 120.122447,22.4725532 120.122447,26.9188564 C120.122447,31.3363564 117.338644,35.1055319 111.022154,35.1055319 L111.022154,35.1055319 Z" id="Fill-2" fill="#DA2F2A" sketch:type="MSShapeGroup"></path>
            <path d="M122.05125,43.6267287 L122.05125,19.1445213 L138.351835,19.1445213 L138.351835,22.9485638 L126.602154,22.9485638 L126.602154,28.8228989 L137.332101,28.8228989 L136.209787,32.6254255 L126.465718,32.6254255 C126.567287,32.8624202 126.602154,33.1337766 126.602154,33.2727394 L126.602154,39.8231915 L138.383165,39.8231915 L138.383165,43.6267287 L122.05125,43.6267287" id="Fill-3" fill="#DA2F2A" sketch:type="MSShapeGroup"></path>
            <path d="M149.234894,22.9702926 L145.464707,22.9702926 L145.464707,30.4065691 L149.234894,30.4065691 C152.426489,30.4065691 153.681702,28.9785372 153.681702,26.7394681 C153.681702,24.2927128 152.32391,22.9702926 149.234894,22.9702926 L149.234894,22.9702926 Z M154.259282,43.6494681 L148.623963,35.0246809 C148.452154,34.7856649 148.384947,34.4819681 148.315718,34.2065691 L145.464707,34.2065691 L145.464707,43.6494681 L140.915824,43.6494681 L140.915824,19.16625 L149.234894,19.16625 C155.448803,19.16625 158.298803,22.2229255 158.298803,26.7394681 C158.298803,30.065984 156.669654,32.5117287 153.206197,33.5986702 L159.726835,43.6494681 L154.259282,43.6494681 L154.259282,43.6494681 Z" id="Fill-4" fill="#DA2F2A" sketch:type="MSShapeGroup"></path>
            <path d="M172.010638,26.3336968 C171.773644,25.686383 171.571516,24.8394681 171.503298,24.3963032 C171.43508,24.8718085 171.22992,25.7217553 171.027793,26.3336968 L168.51484,33.6340426 L174.491755,33.6340426 L172.010638,26.3336968 L172.010638,26.3336968 Z M177.920346,43.6494681 L175.814176,37.4365691 L167.225771,37.4365691 L165.08625,43.6494681 L160.365559,43.6494681 L169.22734,19.16625 L173.878803,19.16625 L182.709255,43.6494681 L177.920346,43.6494681 L177.920346,43.6494681 Z" id="Fill-5" fill="#DA2F2A" sketch:type="MSShapeGroup"></path>
            <path d="M86.1594415,68.0285904 C83.6576064,68.0285904 81.4523936,67.0846543 80.4311436,64.8809574 L82.8253457,64.0203989 C83.470133,65.2321543 84.5969947,65.7693085 86.1594415,65.7693085 C88.0948138,65.7693085 89.3859043,65.0952128 89.3859043,63.5100266 C89.3859043,62.5170745 88.8477394,61.8955319 87.7719149,61.7090691 L84.2488298,61.0920745 C82.0456383,60.7130851 80.72625,59.3947074 80.72625,57.0040426 C80.72625,54.3657713 82.8253457,52.7800798 86.3736968,52.7800798 C89.0089362,52.7800798 90.8639628,53.6947074 91.8331649,55.4426064 L89.6552394,56.5492553 C89.0362234,55.6300798 88.0948138,55.063617 86.3999734,55.063617 C84.572234,55.063617 83.4974202,55.6568617 83.4974202,57.0040426 C83.4974202,57.78375 83.7945479,58.4017553 84.9229255,58.5902394 L88.3080585,59.1516489 C90.4349468,59.5028457 92.2096277,60.6873138 92.2096277,63.268484 C92.2096277,66.7375 89.3591223,68.0285904 86.1594415,68.0285904" id="Fill-6" fill="#898D8B" sketch:type="MSShapeGroup"></path>
            <path d="M99.786383,55.063617 C97.0940426,55.063617 95.9924468,56.3855319 95.9924468,60.3901862 C95.9924468,64.3963564 97.0940426,65.7435372 99.786383,65.7435372 C102.473165,65.7435372 103.547979,64.3963564 103.547979,60.3901862 C103.547979,56.3855319 102.473165,55.063617 99.786383,55.063617 L99.786383,55.063617 Z M99.786383,68.0285904 C94.9166223,68.0285904 93.169734,65.124016 93.169734,60.3901862 C93.169734,55.6568617 94.9166223,52.7800798 99.786383,52.7800798 C104.65008,52.7800798 106.426782,55.6568617 106.426782,60.3901862 C106.426782,65.124016 104.65008,68.0285904 99.786383,68.0285904 L99.786383,68.0285904 Z" id="Fill-7" fill="#898D8B" sketch:type="MSShapeGroup"></path>
            <path d="M115.551835,49.0578989 C115.107154,48.9871543 114.704415,48.9603723 114.234468,48.9603723 C112.753883,48.9603723 111.732633,49.6375 111.732633,51.8139096 L111.732633,53.1828191 L115.400239,53.1828191 L114.865106,55.5234574 L111.732633,55.5234574 L111.732633,67.6258511 L108.910931,67.6258511 L108.910931,56.5174202 C108.910931,56.2223138 109.04383,55.8999202 109.181277,55.5234574 L106.695106,55.5234574 L106.695106,53.1828191 L108.910931,53.1828191 L108.910931,51.8139096 C108.910931,47.7268883 111.439548,46.6758245 114.264282,46.6758245 C114.887846,46.6758245 115.500798,46.7617287 116.107686,46.8739096 L115.551835,49.0578989" id="Fill-8" fill="#898D8B" sketch:type="MSShapeGroup"></path>
            <path d="M123.047739,68.0285904 C120.732367,68.0285904 118.556463,67.1134574 118.556463,63.9395479 L118.556463,56.4385904 C118.556463,56.1682447 118.610532,55.8999202 118.823777,55.5234574 L116.190559,55.5234574 L116.190559,53.1828191 L118.556463,53.1828191 L118.556463,48.2893085 L121.380186,47.4565426 L121.380186,53.1828191 L126.283298,53.1828191 L125.529867,55.5234574 L121.380186,55.5234574 L121.380186,63.9395479 C121.380186,65.2058777 122.237713,65.6894681 123.236223,65.6894681 C124.069495,65.6894681 124.76734,65.3923404 125.600106,64.8289096 L127.243404,66.4701862 C126.138271,67.4904255 124.551064,68.0285904 123.047739,68.0285904" id="Fill-9" fill="#898D8B" sketch:type="MSShapeGroup"></path>
            <path d="M142.803697,67.6258511 L140.248298,67.6258511 L137.50492,59.2860638 C137.316436,58.7499202 137.157261,58.2931117 137.103191,57.5134043 C137.048617,58.2931117 136.861144,58.7499202 136.67266,59.2860638 L133.929282,67.6258511 L131.375904,67.6258511 L126.750213,53.1828191 L129.522394,53.1828191 L132.235452,61.6812766 C132.344096,62.0061968 132.505798,62.7859043 132.638191,64.2639628 C132.827686,62.7859043 132.935319,62.3013032 133.123803,61.7353457 L135.865665,53.1828191 L138.313936,53.1828191 L141.057819,61.7353457 C141.245293,62.3013032 141.352926,62.7859043 141.54141,64.2639628 C141.675824,62.7859043 141.834495,62.0061968 141.943138,61.6812766 L144.660239,53.1828191 L147.430399,53.1828191 L142.803697,67.6258511" id="Fill-10" fill="#898D8B" sketch:type="MSShapeGroup"></path>
            <path d="M156.953644,61.0920745 C155.906622,60.9273404 154.748936,60.7418883 153.593271,60.7418883 C151.737739,60.7418883 150.366809,61.3593883 150.366809,63.1598404 C150.366809,65.124016 151.41484,65.6894681 152.62609,65.6894681 C154.371968,65.6894681 155.501862,65.2569149 156.953644,64.3175266 L156.953644,61.0920745 L156.953644,61.0920745 Z M157.466037,67.6258511 L157.16891,66.5757979 C155.717128,67.545 154.318404,68.0285904 152.62609,68.0285904 C149.075718,68.0285904 147.514282,66.0118617 147.514282,63.1598404 C147.514282,59.424016 150.285957,58.5356649 153.029335,58.5356649 C154.318404,58.5356649 155.770186,58.7231383 156.953644,58.9939894 L156.953644,57.1374468 C156.953644,55.7644947 156.229016,55.063617 154.291622,55.063617 C152.677128,55.063617 151.333989,55.4426064 150.39359,56.8135372 L148.268723,55.5760106 C149.504229,53.4531649 151.845372,52.7800798 154.346197,52.7800798 C158.969867,52.7800798 159.777367,55.063617 159.777367,57.1642287 L159.777367,67.6258511 L157.466037,67.6258511 L157.466037,67.6258511 Z" id="Fill-11" fill="#898D8B" sketch:type="MSShapeGroup"></path>
            <path d="M167.735133,55.2000532 C166.900346,55.2000532 166.066064,55.3637766 165.448564,55.8731383 L164.50766,56.6528457 L164.50766,67.6258511 L161.681915,67.6258511 L161.681915,53.1828191 L163.99375,53.1828191 L164.345957,54.5527394 L165.33992,53.7214894 C166.200479,52.9963564 167.140878,52.7800798 168.18891,52.7800798 C168.647234,52.7800798 169.078271,52.8341489 169.534574,52.8907447 L169.534574,55.3637766 C168.970638,55.2809043 168.353138,55.2000532 167.735133,55.2000532" id="Fill-12" fill="#898D8B" sketch:type="MSShapeGroup"></path>
            <g id="Group-16">
                <mask id="mask-2" sketch:name="Clip 14" fill="white">
                    <use xlink:href="#path-1"></use>
                </mask>
                <g id="Clip-14"></g>
                <path d="M176.542846,55.1212234 C173.964707,55.1212234 172.779229,56.0348404 172.590745,58.9939894 L179.98508,58.9939894 C179.931011,56.7604787 178.96383,55.1212234 176.542846,55.1212234 L176.542846,55.1212234 Z M172.566489,61.2755053 C172.618537,64.3175266 173.611489,65.6894681 176.542846,65.6894681 C178.427686,65.6894681 179.637926,65.0952128 180.415612,63.5888564 L182.808803,64.5070213 C181.623324,66.9249734 179.770824,68.0285904 176.542846,68.0285904 C171.83883,68.0285904 169.741755,65.6348936 169.741755,60.3901862 C169.741755,55.6568617 171.354229,52.7800798 176.542846,52.7800798 C182.110957,52.7800798 182.968484,57.2182979 182.968484,60.3901862 L182.968484,61.2755053 L172.566489,61.2755053 L172.566489,61.2755053 Z" id="Fill-13" fill="#898D8B" sketch:type="MSShapeGroup" mask="url(#mask-2)"></path>
                <path d="M34.5016755,6.98148936 C45.6045479,6.98148936 47.8628191,22.4745745 47.8628191,36.5426596 C47.8628191,49.5743351 46.6065957,67.0204787 34.6381117,67.0204787 C22.668617,67.0204787 21.1213298,49.4035372 21.1213298,36.3728723 C21.1213298,22.3057979 23.3972872,6.98148936 34.5016755,6.98148936 L34.5016755,6.98148936 Z M54.2985638,6.25787234 C48.8492021,2.49071809 42.107234,0.411329787 34.5026862,0.411329787 C27.5479787,0.411329787 21.314867,2.14912234 16.1318085,5.32656915 C6.14720745,11.3823138 0,22.7181383 0,37.2445479 C0,56.892367 13.7947074,74.787234 34.4905585,74.787234 C55.1919681,74.787234 68.9841489,56.892367 68.9841489,37.2445479 C68.9841489,23.4331649 63.4281649,12.5056383 54.2985638,6.25787234 L54.2985638,6.25787234 Z" id="Fill-15" fill="#DA2F2A" sketch:type="MSShapeGroup" mask="url(#mask-2)"></path>
            </g>
            <path d="M184.65625,19.7190691 L184.65625,22.7242021 L183.990239,22.7242021 L183.990239,19.7190691 L182.968484,19.7190691 L182.968484,19.16625 L185.672952,19.16625 L185.672952,19.7190691 L184.65625,19.7190691" id="Fill-17" fill="#DA2F2A" sketch:type="MSShapeGroup"></path>
            <path d="M188.861011,22.7242021 L188.702846,20.6124734 C188.697793,20.5381915 188.693245,20.4442021 188.712952,20.3704255 L188.017128,21.9495479 L187.464309,21.9495479 L186.768484,20.3754787 C186.77859,20.4593617 186.783138,20.5578989 186.77859,20.6271277 L186.620426,22.7242021 L185.974122,22.7242021 L186.240426,19.16625 L186.812952,19.16625 L187.691197,21.0465426 C187.721011,21.1107181 187.735665,21.1698404 187.745771,21.2143085 C187.755372,21.1551862 187.765479,21.0960638 187.789734,21.0414894 L188.668484,19.16625 L189.241011,19.16625 L189.507314,22.7242021 L188.861011,22.7242021" id="Fill-18" fill="#DA2F2A" sketch:type="MSShapeGroup"></path>
        </g>
    </g>
</svg>